<?xml version="1.0" encoding="iso-8859-1"?>
<!-- Generator: Adobe Illustrator 16.0.4, SVG Export Plug-In . SVG Version: 6.00 Build 0)  -->
<!DOCTYPE svg PUBLIC "-//W3C//DTD SVG 1.1//EN" "http://www.w3.org/Graphics/SVG/1.1/DTD/svg11.dtd">
<svg version="1.1" id="Layer_1" xmlns="http://www.w3.org/2000/svg" xmlns:xlink="http://www.w3.org/1999/xlink" x="0px" y="0px"
	 width="100px" height="100px" viewBox="0 0 100 100" style="enable-background:new 0 0 100 100;" xml:space="preserve">
<g>
	<path style="fill:#777777;" d="M93,37v26H7V37H93 M95,35H5v30h90V35L95,35z"/>
</g>
<g>
	<g>
		<path style="fill-rule:evenodd;clip-rule:evenodd;fill:#777777;" d="M71.008,56.518l4.509-4.566
			c-1.933-2.708-1.004-5.968,1.029-7.576c1.01-0.798,2.21-1.221,3.471-1.221c1.489,0,2.898,0.595,3.966,1.675
			c1.982,2.004,2.121,5.183,0.322,7.393c-1.033,1.27-2.637,2.028-4.289,2.028c-1.194,0-2.348-0.387-3.34-1.119l-4.49,4.547
			L71.008,56.518z M80.006,44.747c-2.104,0-3.882,1.773-3.883,3.873c0,1.051,0.402,2.036,1.135,2.771
			c0.732,0.736,1.711,1.141,2.756,1.141c1.042,0,2.021-0.407,2.758-1.145c0.735-0.736,1.138-1.712,1.136-2.749
			c-0.004-2.139-1.749-3.885-3.891-3.891l-0.012-0.1V44.747z"/>
		<path style="fill-rule:evenodd;clip-rule:evenodd;fill:#777777;" d="M76.667,53c-1.494,1.513-2.991,3.029-4.481,4.538
			c-0.365-0.359-0.706-0.696-1.036-1.021c1.497-1.516,2.997-3.035,4.498-4.556c-1.874-2.551-1.169-5.823,0.96-7.507
			c2.221-1.756,5.317-1.563,7.304,0.446c1.937,1.958,2.074,5.099,0.315,7.26C82.493,54.291,79.201,54.926,76.667,53z M80.014,52.632
			c2.206,0,3.999-1.793,3.994-3.994c-0.004-2.199-1.789-3.984-3.99-3.991c-2.168-0.007-3.995,1.81-3.995,3.973
			C76.022,50.848,77.797,52.632,80.014,52.632z"/>
	</g>
</g>
</svg>
