<?xml version="1.0" encoding="iso-8859-1"?>
<!-- Generator: Adobe Illustrator 16.0.4, SVG Export Plug-In . SVG Version: 6.00 Build 0)  -->
<!DOCTYPE svg PUBLIC "-//W3C//DTD SVG 1.1//EN" "http://www.w3.org/Graphics/SVG/1.1/DTD/svg11.dtd">
<svg version="1.1" id="Layer_1" xmlns="http://www.w3.org/2000/svg" xmlns:xlink="http://www.w3.org/1999/xlink" x="0px" y="0px"
	 width="100px" height="100px" viewBox="0 0 100 100" style="enable-background:new 0 0 100 100;" xml:space="preserve">
<g>
	<path style="fill:#777777;" d="M93,17v16.314H7V17H93 M95,15H5v20.314h90V15L95,15z"/>
</g>
<g>
	<g>
		<path style="fill-rule:evenodd;clip-rule:evenodd;fill:#777777;" d="M78.118,29.161l3.236-3.278
			c-1.214-2.067-0.465-4.449,1.051-5.648c0.799-0.632,1.75-0.965,2.748-0.965c1.18,0,2.296,0.471,3.142,1.325
			c1.572,1.59,1.683,4.109,0.258,5.86c-0.819,1.007-2.09,1.609-3.4,1.609c-0.803,0-1.583-0.22-2.28-0.641l-3.214,3.255
			L78.118,29.161z M85.146,21.388c-1.207,0-2.227,1.017-2.228,2.22c0,0.605,0.231,1.172,0.652,1.594
			c0.419,0.421,0.981,0.654,1.582,0.654c0.598,0,1.16-0.233,1.583-0.657c0.421-0.422,0.653-0.982,0.652-1.577
			c-0.002-1.228-1.005-2.23-2.234-2.234H85.146z"/>
		<path style="fill-rule:evenodd;clip-rule:evenodd;fill:#777777;" d="M78.825,29.156l3.167-3.208
			c-1.357-1.902-0.706-4.192,0.723-5.321c0.709-0.561,1.552-0.857,2.438-0.857c1.046,0,2.036,0.418,2.786,1.177
			c1.392,1.408,1.489,3.641,0.226,5.193c-0.726,0.892-1.852,1.424-3.012,1.424c-0.839,0-1.649-0.271-2.346-0.786l-3.153,3.194
			L78.825,29.156z M85.146,20.888c-1.479,0-2.727,1.246-2.728,2.72c0,0.738,0.283,1.43,0.797,1.947
			c0.514,0.517,1.202,0.801,1.936,0.801c0.731,0,1.419-0.286,1.937-0.804c0.516-0.517,0.799-1.203,0.798-1.931
			c-0.003-1.502-1.229-2.729-2.733-2.733l-0.008-0.07V20.888z"/>
		<path style="fill-rule:evenodd;clip-rule:evenodd;fill:#777777;" d="M78.217,29.161l3.225-3.267
			c-1.235-2.045-0.505-4.409,1.007-5.604c0.786-0.622,1.722-0.95,2.705-0.95c1.162,0,2.26,0.463,3.091,1.304
			c1.547,1.564,1.657,4.043,0.254,5.767c-0.807,0.991-2.057,1.583-3.346,1.583c-0.81,0-1.593-0.227-2.291-0.659l-3.205,3.246
			L78.217,29.161z M85.145,21.318c-1.245,0-2.297,1.049-2.297,2.291c0,0.624,0.239,1.208,0.672,1.644
			c0.433,0.435,1.012,0.675,1.631,0.675c0.617,0,1.196-0.241,1.633-0.678c0.435-0.436,0.674-1.013,0.673-1.626
			c-0.002-1.267-1.036-2.301-2.305-2.305l-0.007-0.5V21.318z"/>
		<path style="fill-rule:evenodd;clip-rule:evenodd;fill:#777777;" d="M82.8,26.686c-1.049,1.062-2.101,2.128-3.147,3.188
			c-0.256-0.252-0.496-0.489-0.728-0.717c1.051-1.065,2.104-2.132,3.159-3.2c-1.316-1.792-0.821-4.09,0.675-5.273
			c1.56-1.233,3.734-1.098,5.13,0.313c1.361,1.375,1.457,3.582,0.222,5.1C86.893,27.592,84.58,28.038,82.8,26.686z M85.151,26.427
			c1.549,0,2.809-1.259,2.806-2.805c-0.003-1.545-1.257-2.799-2.803-2.804c-1.523-0.005-2.806,1.271-2.806,2.791
			C82.347,25.174,83.594,26.427,85.151,26.427z"/>
	</g>
</g>
<g>
	<path style="fill:#777777;" d="M49.847,47v16H32.809V47H49.847 M51.847,45H30.809v20h21.038V45L51.847,45z"/>
</g>
<line style="fill:none;stroke:#777777;stroke-width:2;stroke-miterlimit:10;" x1="56.093" y1="46" x2="94.589" y2="46"/>
<g>
	<path style="fill:#777777;" d="M49.847,77v16H32.809V77H49.847 M51.847,75H30.809v20h21.038V75L51.847,75z"/>
</g>
<line style="fill:none;stroke:#777777;stroke-width:2;stroke-miterlimit:10;" x1="56.093" y1="51" x2="88.667" y2="51"/>
<line style="fill:none;stroke:#777777;stroke-width:2;stroke-miterlimit:10;" x1="56.093" y1="76" x2="94.589" y2="76"/>
<line style="fill:none;stroke:#777777;stroke-width:2;stroke-miterlimit:10;" x1="56.093" y1="81" x2="88.667" y2="81"/>
<g>
	<path style="fill:#777777;" d="M23,47v46H7V47H23 M25,45H5v50h20V45L25,45z"/>
</g>
<line style="fill:none;stroke:#777777;stroke-width:2;stroke-miterlimit:10;" x1="11.105" y1="59.167" x2="18.369" y2="59.167"/>
<line style="fill:none;stroke:#777777;stroke-width:2;stroke-miterlimit:10;" x1="11.105" y1="52.167" x2="18.369" y2="52.167"/>
<line style="fill:none;stroke:#777777;stroke-width:2;stroke-miterlimit:10;" x1="11.105" y1="71" x2="18.369" y2="71"/>
<line style="fill:none;stroke:#777777;stroke-width:2;stroke-miterlimit:10;" x1="11.105" y1="65" x2="18.369" y2="65"/>
<line style="fill:none;stroke:#777777;stroke-width:2;stroke-miterlimit:10;" x1="11.105" y1="76" x2="18.369" y2="76"/>
<line style="fill:none;stroke:#777777;stroke-width:2;stroke-miterlimit:10;" x1="11.368" y1="81.639" x2="18.632" y2="81.639"/>
</svg>
