<?xml version="1.0" encoding="iso-8859-1"?>
<!-- Generator: Adobe Illustrator 16.0.4, SVG Export Plug-In . SVG Version: 6.00 Build 0)  -->
<!DOCTYPE svg PUBLIC "-//W3C//DTD SVG 1.1//EN" "http://www.w3.org/Graphics/SVG/1.1/DTD/svg11.dtd">
<svg version="1.1" id="Layer_1" xmlns="http://www.w3.org/2000/svg" xmlns:xlink="http://www.w3.org/1999/xlink" x="0px" y="0px"
	 width="100px" height="100px" viewBox="0 0 100 100" style="enable-background:new 0 0 100 100;" xml:space="preserve">
<g>
	<path style="fill:#777777;" d="M95,15h-5v2h5V15L95,15z M85,15h-5v2h5V15L85,15z M75,15h-5v2h5V15L75,15z M65,15h-5v2h5V15L65,15z
		 M55,15h-5v2h5V15L55,15z M45,15h-5v2h5V15L45,15z M35,15h-5v2h5V15L35,15z M25,15h-5v2h5V15L25,15z M15,15h-5v2h5V15L15,15z M7,15
		H5v5h2V15L7,15z M7,25H5v5h2V25L7,25z M7,35H5v5h2V35L7,35z M7,45H5v5h2V45L7,45z M7,55H5v5h2V55L7,55z M7,65H5v5h2V65L7,65z M7,75
		H5v5h2V75L7,75z M7,85H5v5h2V85L7,85z M10,93H5v2h5V93L10,93z M20,93h-5v2h5V93L20,93z M30,93h-5v2h5V93L30,93z M40,93h-5v2h5V93
		L40,93z M50,93h-5v2h5V93L50,93z M60,93h-5v2h5V93L60,93z M70,93h-5v2h5V93L70,93z M80,93h-5v2h5V93L80,93z M90,93h-5v2h5V93L90,93
		z M95,90h-2v5h2V90L95,90z M95,80h-2v5h2V80L95,80z M95,70h-2v5h2V70L95,70z M95,60h-2v5h2V60L95,60z M95,50h-2v5h2V50L95,50z
		 M95,40h-2v5h2V40L95,40z M95,30h-2v5h2V30L95,30z M95,20h-2v5h2V20L95,20z"/>
</g>
</svg>
