<?xml version="1.0" encoding="iso-8859-1"?>
<!-- Generator: Adobe Illustrator 16.0.4, SVG Export Plug-In . SVG Version: 6.00 Build 0)  -->
<!DOCTYPE svg PUBLIC "-//W3C//DTD SVG 1.1//EN" "http://www.w3.org/Graphics/SVG/1.1/DTD/svg11.dtd">
<svg version="1.1" id="Layer_1" xmlns="http://www.w3.org/2000/svg" xmlns:xlink="http://www.w3.org/1999/xlink" x="0px" y="0px"
	 width="100px" height="100px" viewBox="0 0 100 100" style="enable-background:new 0 0 100 100;" xml:space="preserve">
<g>
	<path style="fill:none;stroke:#777777;stroke-width:2;stroke-miterlimit:10;" d="M13.927,31.894h6.376
		c0.576,0,1.062-0.37,1.248-0.883L21.565,31l2.842-6.339l-0.011-0.015c0.05-0.138,0.081-0.282,0.081-0.436
		c0-0.735-0.597-1.329-1.33-1.329h-4.269v-5.026c0-0.877-0.707-1.585-1.584-1.585c-0.782,0-1.095,0.451-1.557,1.315l-2.163,5.294
		l-6.55,0.005"/>
	<path style="fill:none;stroke:#777777;stroke-width:2;stroke-miterlimit:10;" d="M5.131,35.186h2.883
		c1.39,0,2.516-1.127,2.516-2.519V22.88H5.131"/>
</g>
<g>
	<path style="fill:#777777;" d="M43.318,47v36H7V47H43.318 M45.318,45H5v40h40.318V45L45.318,45z"/>
</g>
<line style="fill:none;stroke:#777777;stroke-width:2;stroke-miterlimit:10;" x1="5" y1="65" x2="45" y2="65"/>
<g>
	<path style="fill:#777777;" d="M93,47v36H57V47H93 M95,45H55v40h40V45L95,45z"/>
</g>
<line style="fill:none;stroke:#777777;stroke-width:2;stroke-miterlimit:10;" x1="55" y1="65" x2="94.685" y2="65"/>
<line style="fill:none;stroke:#777777;stroke-width:2;stroke-miterlimit:10;" x1="11" y1="76" x2="32" y2="76"/>
<line style="fill:none;stroke:#777777;stroke-width:2;stroke-miterlimit:10;" x1="11" y1="71" x2="39" y2="71"/>
<line style="fill:none;stroke:#777777;stroke-width:2;stroke-miterlimit:10;" x1="58.969" y1="76" x2="79.803" y2="76"/>
<line style="fill:none;stroke:#777777;stroke-width:2;stroke-miterlimit:10;" x1="58.969" y1="71" x2="86.747" y2="71"/>
<line style="fill:none;stroke:#777777;stroke-width:2;stroke-miterlimit:10;" x1="35.393" y1="26" x2="95" y2="26"/>
<line style="fill:none;stroke:#777777;stroke-width:2;stroke-miterlimit:10;" x1="4.875" y1="94" x2="93.581" y2="94"/>
<line style="fill:none;stroke:#777777;stroke-width:2;stroke-miterlimit:10;" x1="35.393" y1="31.679" x2="95" y2="31.679"/>
</svg>
