<?xml version="1.0" encoding="iso-8859-1"?>
<!-- Generator: Adobe Illustrator 16.0.4, SVG Export Plug-In . SVG Version: 6.00 Build 0)  -->
<!DOCTYPE svg PUBLIC "-//W3C//DTD SVG 1.1//EN" "http://www.w3.org/Graphics/SVG/1.1/DTD/svg11.dtd">
<svg version="1.1" id="Layer_1" xmlns="http://www.w3.org/2000/svg" xmlns:xlink="http://www.w3.org/1999/xlink" x="0px" y="0px"
	 width="100px" height="100px" viewBox="0 0 100 100" style="enable-background:new 0 0 100 100;" xml:space="preserve">
<g>
	<path style="fill:#777777;" d="M50.356,37.116v16H33.318v-16H50.356 M52.356,35.116H31.318v20h21.038V35.116L52.356,35.116z"/>
</g>
<line style="fill:none;stroke:#777777;stroke-width:2;stroke-miterlimit:10;" x1="56.603" y1="36.116" x2="95.099" y2="36.116"/>
<g>
	<path style="fill:#777777;" d="M50.356,67.115v16H33.318v-16H50.356 M52.356,65.115H31.318v20h21.038V65.115L52.356,65.115z"/>
</g>
<line style="fill:none;stroke:#777777;stroke-width:2;stroke-miterlimit:10;" x1="56.603" y1="41.116" x2="89.176" y2="41.116"/>
<line style="fill:none;stroke:#777777;stroke-width:2;stroke-miterlimit:10;" x1="56.603" y1="66.115" x2="95.099" y2="66.115"/>
<line style="fill:none;stroke:#777777;stroke-width:2;stroke-miterlimit:10;" x1="56.603" y1="71.115" x2="89.176" y2="71.115"/>
<g>
	<path style="fill:#777777;" d="M23.51,37.116v46h-16v-46H23.51 M25.51,35.116h-20v50h20V35.116L25.51,35.116z"/>
</g>
<line style="fill:none;stroke:#777777;stroke-width:2;stroke-miterlimit:10;" x1="11.615" y1="49.282" x2="18.879" y2="49.282"/>
<line style="fill:none;stroke:#777777;stroke-width:2;stroke-miterlimit:10;" x1="11.615" y1="42.282" x2="18.879" y2="42.282"/>
<line style="fill:none;stroke:#777777;stroke-width:2;stroke-miterlimit:10;" x1="11.615" y1="61.116" x2="18.879" y2="61.116"/>
<line style="fill:none;stroke:#777777;stroke-width:2;stroke-miterlimit:10;" x1="11.615" y1="55.116" x2="18.879" y2="55.116"/>
<line style="fill:none;stroke:#777777;stroke-width:2;stroke-miterlimit:10;" x1="11.615" y1="66.115" x2="18.879" y2="66.115"/>
<line style="fill:none;stroke:#777777;stroke-width:2;stroke-miterlimit:10;" x1="11.878" y1="71.754" x2="19.142" y2="71.754"/>
<g>
	<path style="fill:#777777;" d="M10.146,20.785c0,0.667-0.07,1.206-0.579,1.689c-0.452,0.431-1.007,0.58-1.562,0.626
		c-0.485,0.044-1.116-0.029-1.525-0.32c-0.562-0.409-0.668-1.014-0.668-1.786v-4.261l1.647,0.14v3.858
		c0,0.207-0.008,0.487,0.1,0.673c0.123,0.191,0.372,0.26,0.577,0.25c0.187-0.008,0.415-0.08,0.556-0.227
		c0.208-0.208,0.184-0.519,0.184-0.794v-3.642l1.271,0.107V20.785z"/>
	<path style="fill:#777777;" d="M12.173,22.635l-1.524,0.125v-3.854l1.524,0.05V22.635z M12.173,18.539l-1.524-0.068v-1.329
		l1.524,0.128V18.539z"/>
	<polygon style="fill:#777777;" points="15.214,22.404 13.674,22.533 13.674,18.631 12.564,18.584 12.564,17.301 16.301,17.619 
		16.301,18.748 15.214,18.7 	"/>
	<polygon style="fill:#777777;" points="4.51,15.027 20.809,15.027 20.809,24.922 4.51,24.922 17.549,23.275 17.549,16.678 	"/>
	<path style="opacity:0.33;fill:#777777;" d="M31.888,20.81l0.803-2.869l0.799,2.869H31.888z M23.854,19.212v-1.919h0.873
		c0.685,0,1.429,0.073,1.429,0.952c0,0.923-0.829,0.967-1.517,0.967H23.854z M37.823,22.052c0.527,2.149,2.358,3.013,4.416,3.013
		c2.03,0,4.377-0.95,4.377-3.331c0-1.081-0.502-2.005-1.459-2.522c-0.857-0.449-1.843-0.607-2.772-0.793
		c-0.374-0.088-1.089-0.189-1.089-0.708c0-0.52,0.573-0.633,0.973-0.633c0.758,0,1.303,0.259,1.586,0.994l2.489-0.765
		c-0.602-1.716-2.245-2.421-3.946-2.421c-0.971,0-2.015,0.186-2.817,0.75c-0.785,0.563-1.257,1.515-1.257,2.48
		c0,2.35,2.186,2.855,4.033,3.213c0.443,0.088,1.199,0.205,1.199,0.81c0,0.548-0.772,0.606-1.158,0.606
		c-0.871,0-1.528-0.317-1.787-1.196L37.823,22.052z M34.561,24.922h3.075l-3.075-9.892h-3.174l-3.044,9.892h2.445l0.599-1.947h2.617
		L34.561,24.922z M23.854,21.329h1.531c0.941,0,1.916-0.143,2.675-0.762c0.727-0.592,1.085-1.486,1.085-2.422
		c0-1.067-0.545-2.05-1.459-2.598c-0.844-0.49-1.917-0.517-2.873-0.517h-4.004v9.892h3.045V21.329z"/>
</g>
<line style="fill:none;stroke:#777777;stroke-width:2;stroke-miterlimit:10;" x1="55.51" y1="16.309" x2="95.099" y2="16.309"/>
<line style="fill:none;stroke:#777777;stroke-width:2;stroke-miterlimit:10;" x1="55.51" y1="21.987" x2="95.099" y2="21.987"/>
<line style="fill:none;stroke:#777777;stroke-width:2;stroke-miterlimit:10;" x1="6.04" y1="94" x2="94.746" y2="94"/>
</svg>
