<?xml version="1.0" encoding="iso-8859-1"?>
<!-- Generator: Adobe Illustrator 16.0.4, SVG Export Plug-In . SVG Version: 6.00 Build 0)  -->
<!DOCTYPE svg PUBLIC "-//W3C//DTD SVG 1.1//EN" "http://www.w3.org/Graphics/SVG/1.1/DTD/svg11.dtd">
<svg version="1.1" id="Layer_1" xmlns="http://www.w3.org/2000/svg" xmlns:xlink="http://www.w3.org/1999/xlink" x="0px" y="0px"
	 width="100px" height="100px" viewBox="0 0 100 100" style="enable-background:new 0 0 100 100;" xml:space="preserve">
<g>
	<path style="fill:#777777;" d="M85.196,25h-5v2h5V25L85.196,25z M75.196,25h-5v2h5V25L75.196,25z M65.196,25h-5v2h5V25L65.196,25z
		 M55.196,25h-5v2h5V25L55.196,25z M45.196,25h-5v2h5V25L45.196,25z M35.196,25h-5v2h5V25L35.196,25z M25.196,25h-5v2h5V25
		L25.196,25z M17.196,25h-2v5h2V25L17.196,25z M17.196,35h-2v5h2V35L17.196,35z M17.196,45h-2v5h2V45L17.196,45z M17.196,55h-2v5h2
		V55L17.196,55z M17.196,65h-2v5h2V65L17.196,65z M20.196,73h-5v2h5V73L20.196,73z M30.196,73h-5v2h5V73L30.196,73z M40.196,73h-5v2
		h5V73L40.196,73z M50.196,73h-5v2h5V73L50.196,73z M60.196,73h-5v2h5V73L60.196,73z M70.196,73h-5v2h5V73L70.196,73z M80.196,73h-5
		v2h5V73L80.196,73z M85.196,70h-2v5h2V70L85.196,70z M85.196,60h-2v5h2V60L85.196,60z M85.196,50h-2v5h2V50L85.196,50z M85.196,40
		h-2v5h2V40L85.196,40z M85.196,30h-2v5h2V30L85.196,30z"/>
</g>
<rect x="45.321" y="35" style="fill:#777777;" width="30" height="30"/>
<rect x="25.464" y="35" style="fill:#777777;" width="14.279" height="30"/>
</svg>
