<?xml version="1.0" encoding="iso-8859-1"?>
<!-- Generator: Adobe Illustrator 16.0.4, SVG Export Plug-In . SVG Version: 6.00 Build 0)  -->
<!DOCTYPE svg PUBLIC "-//W3C//DTD SVG 1.1//EN" "http://www.w3.org/Graphics/SVG/1.1/DTD/svg11.dtd">
<svg version="1.1" id="Layer_1" xmlns="http://www.w3.org/2000/svg" xmlns:xlink="http://www.w3.org/1999/xlink" x="0px" y="0px"
	 width="100px" height="100px" viewBox="0 0 100 100" style="enable-background:new 0 0 100 100;" xml:space="preserve">
<g>
	<path style="fill:#777777;" d="M84.804,25h-5v2h5V25L84.804,25z M74.804,25h-5v2h5V25L74.804,25z M64.804,25h-5v2h5V25L64.804,25z
		 M54.804,25h-5v2h5V25L54.804,25z M44.804,25h-5v2h5V25L44.804,25z M34.804,25h-5v2h5V25L34.804,25z M24.804,25h-5v2h5V25
		L24.804,25z M16.804,25h-2v5h2V25L16.804,25z M16.804,35h-2v5h2V35L16.804,35z M16.804,45h-2v5h2V45L16.804,45z M16.804,55h-2v5h2
		V55L16.804,55z M16.804,65h-2v5h2V65L16.804,65z M19.804,73h-5v2h5V73L19.804,73z M29.804,73h-5v2h5V73L29.804,73z M39.804,73h-5v2
		h5V73L39.804,73z M49.804,73h-5v2h5V73L49.804,73z M59.804,73h-5v2h5V73L59.804,73z M69.804,73h-5v2h5V73L69.804,73z M79.804,73h-5
		v2h5V73L79.804,73z M84.804,70h-2v5h2V70L84.804,70z M84.804,60h-2v5h2V60L84.804,60z M84.804,50h-2v5h2V50L84.804,50z M84.804,40
		h-2v5h2V40L84.804,40z M84.804,30h-2v5h2V30L84.804,30z"/>
</g>
<rect x="25" y="35" style="fill:#777777;" width="30" height="30"/>
<rect x="60.578" y="35" style="fill:#777777;" width="14.279" height="30"/>
</svg>
