<svg xmlns="http://www.w3.org/2000/svg" width="100" height="100" viewBox="0 0 100 100"><path fill="#777" d="M85.195 25h-5v2h5v-2zm-10 0h-5v2h5v-2zm-10 0h-5v2h5v-2zm-10 0h-5v2h5v-2zm-9.999 0h-5v2h5v-2zm-10 0h-5v2h5v-2zm-10 0h-5v2h5v-2zm-8 0h-2v5h2v-5zm0 10h-2v5h2v-5zm0 10h-2v5h2v-5zm0 10h-2v5h2v-5zm0 10h-2v5h2v-5zm3 8h-5v2h5v-2zm10 0h-5v2h5v-2zm10 0h-5v2h5v-2zm10 0h-5v2h5v-2zm9.999 0h-5v2h5v-2zm10 0h-5v2h5v-2zm10 0h-5v2h5v-2zm5-3h-2v5h2v-5zm0-10h-2v5h2v-5zm0-10h-2v5h2v-5zm0-10h-2v5h2v-5zm0-10h-2v5h2v-5z"/><g fill="#777"><path d="M25.195 34.667h13.333v30h-13.333zM43.529 34.667h13.333v30h-13.333zM61.862 34.667h13.333v30h-13.333z"/></g></svg>